{
    "asset" : {
        "generator" : "Khronos glTF Blender I/O v0.9.36",
        "version" : "2.0"
    },
    "scene" : 0,
    "scenes" : [
        {
            "name" : "Scene",
            "nodes" : [
                0,
                1,
                2
            ]
        }
    ],
    "nodes" : [
        {
            "mesh" : 0,
            "name" : "elefant.eyes",
            "rotation" : [
                0,
                -0.9242594242095947,
                0,
                0.3817650377750397
            ],
            "translation" : [
                0,
                0,
                -10
            ]
        },
        {
            "mesh" : 1,
            "name" : "elefant",
            "rotation" : [
                0,
                -0.9242594242095947,
                0,
                0.3817650377750397
            ],
            "translation" : [
                0,
                0,
                -10
            ]
        },
        {
            "mesh" : 2,
            "name" : "elefant.tooth",
            "rotation" : [
                0,
                -0.9242594242095947,
                0,
                0.3817650377750397
            ],
            "translation" : [
                0,
                0,
                -10
            ]
        }
    ],
    "materials" : [
        {
            "doubleSided" : true,
            "name" : "eyes",
            "pbrMetallicRoughness" : {
                "baseColorFactor" : [
                    0.8000000715255737,
                    0.014524667523801327,
                    0.05440123379230499,
                    1
                ],
                "metallicFactor" : 0,
                "roughnessFactor" : 0
            }
        },
        {
            "doubleSided" : true,
            "name" : "body",
            "pbrMetallicRoughness" : {
                "baseColorFactor" : [
                    0.5339401364326477,
                    0.5339401364326477,
                    0.5339401364326477,
                    1
                ],
                "metallicFactor" : 0,
                "roughnessFactor" : 0.5
            }
        },
        {
            "doubleSided" : true,
            "name" : "tooth",
            "pbrMetallicRoughness" : {
                "baseColorFactor" : [
                    0.6920710802078247,
                    0.5173934102058411,
                    0.2528521716594696,
                    1
                ],
                "metallicFactor" : 0,
                "roughnessFactor" : 0.44999998807907104
            }
        }
    ],
    "meshes" : [
        {
            "name" : "Cube.005",
            "primitives" : [
                {
                    "attributes" : {
                        "POSITION" : 0,
                        "NORMAL" : 1
                    },
                    "indices" : 2,
                    "material" : 0
                }
            ]
        },
        {
            "name" : "Cube",
            "primitives" : [
                {
                    "attributes" : {
                        "POSITION" : 3,
                        "NORMAL" : 4
                    },
                    "indices" : 5,
                    "material" : 1
                }
            ]
        },
        {
            "name" : "Cube.001",
            "primitives" : [
                {
                    "attributes" : {
                        "POSITION" : 6,
                        "NORMAL" : 7
                    },
                    "indices" : 8,
                    "material" : 2
                }
            ]
        }
    ],
    "accessors" : [
        {
            "bufferView" : 0,
            "componentType" : 5126,
            "count" : 224,
            "max" : [
                0.5561871528625488,
                1.4690937995910645,
                -3.5716538429260254
            ],
            "min" : [
                -0.5624909996986389,
                1.3495007753372192,
                -3.6823437213897705
            ],
            "type" : "VEC3"
        },
        {
            "bufferView" : 1,
            "componentType" : 5126,
            "count" : 224,
            "type" : "VEC3"
        },
        {
            "bufferView" : 2,
            "componentType" : 5123,
            "count" : 336,
            "type" : "SCALAR"
        },
        {
            "bufferView" : 3,
            "componentType" : 5126,
            "count" : 2860,
            "max" : [
                2.3446059226989746,
                3.523364305496216,
                5.331270694732666
            ],
            "min" : [
                -2.329383611679077,
                -3.332169771194458,
                -4.06636381149292
            ],
            "type" : "VEC3"
        },
        {
            "bufferView" : 4,
            "componentType" : 5126,
            "count" : 2860,
            "type" : "VEC3"
        },
        {
            "bufferView" : 5,
            "componentType" : 5123,
            "count" : 3348,
            "type" : "SCALAR"
        },
        {
            "bufferView" : 6,
            "componentType" : 5126,
            "count" : 414,
            "max" : [
                0.7472628355026245,
                0.513286292552948,
                -3.4860751628875732
            ],
            "min" : [
                -0.7472628951072693,
                -0.5250623226165771,
                -4.647492408752441
            ],
            "type" : "VEC3"
        },
        {
            "bufferView" : 7,
            "componentType" : 5126,
            "count" : 414,
            "type" : "VEC3"
        },
        {
            "bufferView" : 8,
            "componentType" : 5123,
            "count" : 1056,
            "type" : "SCALAR"
        }
    ],
    "bufferViews" : [
        {
            "buffer" : 0,
            "byteLength" : 2688,
            "byteOffset" : 0
        },
        {
            "buffer" : 0,
            "byteLength" : 2688,
            "byteOffset" : 2688
        },
        {
            "buffer" : 0,
            "byteLength" : 672,
            "byteOffset" : 5376
        },
        {
            "buffer" : 0,
            "byteLength" : 34320,
            "byteOffset" : 6048
        },
        {
            "buffer" : 0,
            "byteLength" : 34320,
            "byteOffset" : 40368
        },
        {
            "buffer" : 0,
            "byteLength" : 6696,
            "byteOffset" : 74688
        },
        {
            "buffer" : 0,
            "byteLength" : 4968,
            "byteOffset" : 81384
        },
        {
            "buffer" : 0,
            "byteLength" : 4968,
            "byteOffset" : 86352
        },
        {
            "buffer" : 0,
            "byteLength" : 2112,
            "byteOffset" : 91320
        }
    ],
    "buffers" : [
        {
            "byteLength" : 93432,
            "uri" : "data:application/octet-stream;base64,"
        }
    ]
}
