{
    "asset" : {
        "generator" : "Khronos glTF Blender I/O v0.9.36",
        "version" : "2.0"
    },
    "scene" : 0,
    "scenes" : [
        {
            "name" : "Scene",
            "nodes" : [
                0,
                1
            ]
        }
    ],
    "nodes" : [
        {
            "mesh" : 0,
            "name" : "Sphere",
            "translation" : [
                0,
                0,
                -10
            ]
        },
        {
            "mesh" : 1,
            "name" : "Sphere.001",
            "translation" : [
                -3.1775412559509277,
                1.298073172569275,
                -6.5696702003479
            ]
        }
    ],
    "materials" : [
        {
            "name" : "Material",
            "pbrMetallicRoughness" : {
                "baseColorFactor" : [
                    0.800000011920929,
                    0.800000011920929,
                    0.800000011920929,
                    1
                ],
                "metallicFactor" : 0,
                "roughnessFactor" : 0.5
            }
        }
    ],
    "meshes" : [
        {
            "name" : "Sphere",
            "primitives" : [
                {
                    "attributes" : {
                        "POSITION" : 0,
                        "NORMAL" : 1,
                        "TEXCOORD_0" : 2
                    },
                    "indices" : 3,
                    "material" : 0
                }
            ]
        },
        {
            "name" : "Sphere.001",
            "primitives" : [
                {
                    "attributes" : {
                        "POSITION" : 4,
                        "NORMAL" : 5,
                        "TEXCOORD_0" : 6
                    },
                    "indices" : 3,
                    "material" : 0
                }
            ]
        }
    ],
    "accessors" : [
        {
            "bufferView" : 0,
            "componentType" : 5126,
            "count" : 1984,
            "max" : [
                1.000000238418579,
                1,
                1.0000003576278687
            ],
            "min" : [
                -0.9999998211860657,
                -1,
                -1
            ],
            "type" : "VEC3"
        },
        {
            "bufferView" : 1,
            "componentType" : 5126,
            "count" : 1984,
            "type" : "VEC3"
        },
        {
            "bufferView" : 2,
            "componentType" : 5126,
            "count" : 1984,
            "type" : "VEC2"
        },
        {
            "bufferView" : 3,
            "componentType" : 5123,
            "count" : 2880,
            "type" : "SCALAR"
        },
        {
            "bufferView" : 4,
            "componentType" : 5126,
            "count" : 1984,
            "max" : [
                1.000000238418579,
                1,
                1.0000003576278687
            ],
            "min" : [
                -0.9999998211860657,
                -1,
                -1
            ],
            "type" : "VEC3"
        },
        {
            "bufferView" : 5,
            "componentType" : 5126,
            "count" : 1984,
            "type" : "VEC3"
        },
        {
            "bufferView" : 6,
            "componentType" : 5126,
            "count" : 1984,
            "type" : "VEC2"
        }
    ],
    "bufferViews" : [
        {
            "buffer" : 0,
            "byteLength" : 23808,
            "byteOffset" : 0
        },
        {
            "buffer" : 0,
            "byteLength" : 23808,
            "byteOffset" : 23808
        },
        {
            "buffer" : 0,
            "byteLength" : 15872,
            "byteOffset" : 47616
        },
        {
            "buffer" : 0,
            "byteLength" : 5760,
            "byteOffset" : 63488
        },
        {
            "buffer" : 0,
            "byteLength" : 23808,
            "byteOffset" : 69248
        },
        {
            "buffer" : 0,
            "byteLength" : 23808,
            "byteOffset" : 93056
        },
        {
            "buffer" : 0,
            "byteLength" : 15872,
            "byteOffset" : 116864
        }
    ],
    "buffers" : [
        {
            "byteLength" : 132736,
            "uri" : "data:application/octet-stream;base64,"
        }
    ]
}
